<?xml version="1.0" encoding="UTF-8" standalone="no"?>
<svg
   xmlns:dc="http://purl.org/dc/elements/1.1/"
   xmlns:cc="http://creativecommons.org/ns#"
   xmlns:rdf="http://www.w3.org/1999/02/22-rdf-syntax-ns#"
   xmlns:svg="http://www.w3.org/2000/svg"
   xmlns="http://www.w3.org/2000/svg"
   xmlns:sodipodi="http://sodipodi.sourceforge.net/DTD/sodipodi-0.dtd"
   xmlns:inkscape="http://www.inkscape.org/namespaces/inkscape"
   aria-hidden="true"
   focusable="false"
   data-prefix="far"
   data-icon="envelope"
   class="svg-inline--fa fa-envelope fa-w-16"
   role="img"
   viewBox="0 0 513 385"
   version="1.1"
   id="svg4"
   sodipodi:docname="envelope-regular.svg"
   width="513"
   height="385"
   inkscape:version="0.92.3 (2405546, 2018-03-11)">
  <metadata
     id="metadata10">
    <rdf:RDF>
      <cc:Work
         rdf:about="">
        <dc:format>image/svg+xml</dc:format>
        <dc:type
           rdf:resource="http://purl.org/dc/dcmitype/StillImage" />
        <dc:title></dc:title>
      </cc:Work>
    </rdf:RDF>
  </metadata>
  <defs
     id="defs8" />
  <sodipodi:namedview
     pagecolor="#ffffff"
     bordercolor="#666666"
     borderopacity="1"
     objecttolerance="10"
     gridtolerance="10"
     guidetolerance="10"
     inkscape:pageopacity="0"
     inkscape:pageshadow="2"
     inkscape:window-width="1883"
     inkscape:window-height="1025"
     id="namedview6"
     showgrid="false"
     inkscape:pagecheckerboard="true"
     inkscape:zoom="0.4609375"
     inkscape:cx="256"
     inkscape:cy="256"
     inkscape:window-x="37"
     inkscape:window-y="27"
     inkscape:window-maximized="1"
     inkscape:current-layer="svg4" />
  <path
     d="m 464.5,0.5 h -416 c -26.51,0 -48,21.49 -48,48 v 288 c 0,26.51 21.49,48 48,48 h 416 c 26.51,0 48,-21.49 48,-48 v -288 c 0,-26.51 -21.49,-48 -48,-48 z m 0,48 v 40.805 c -22.422,18.259 -58.168,46.651 -134.587,106.49 -16.841,13.247 -50.201,45.072 -73.413,44.701 -23.208,0.375 -56.579,-31.459 -73.413,-44.701 C 106.68,135.965 70.925,107.567 48.5,89.305 V 48.5 Z m -416,288 V 150.898 c 22.914,18.251 55.409,43.862 104.938,82.646 21.857,17.205 60.134,55.186 103.062,54.955 42.717,0.231 80.509,-37.199 103.053,-54.947 49.528,-38.783 82.032,-64.401 104.947,-82.653 V 336.5 Z"
     id="path2"
     style="fill:#ffffff;stroke:#ffffff"
     inkscape:connector-curvature="0" />
</svg>
